<mxfile host="65bd71144e">
    <diagram id="8HiRbcSPlBJcfi26cKZE">
        <mxGraphModel dx="455" dy="1582" grid="1" gridSize="10" guides="1" tooltips="1" connect="1" arrows="1" fold="1" page="1" pageScale="1" pageWidth="850" pageHeight="1100" math="0" shadow="0">
            <root>
                <mxCell id="0"/>
                <mxCell id="1" parent="0"/>
                <mxCell id="WQnKJFmEZzI5TRq4T7l6-4" style="edgeStyle=none;html=1;exitX=0;exitY=1;exitDx=0;exitDy=0;entryX=1;entryY=0;entryDx=0;entryDy=0;" edge="1" parent="1" source="2" target="4">
                    <mxGeometry relative="1" as="geometry"/>
                </mxCell>
                <mxCell id="WQnKJFmEZzI5TRq4T7l6-6" style="edgeStyle=none;html=1;exitX=0.5;exitY=1;exitDx=0;exitDy=0;entryX=0.342;entryY=0.017;entryDx=0;entryDy=0;entryPerimeter=0;" edge="1" parent="1" source="2" target="WQnKJFmEZzI5TRq4T7l6-5">
                    <mxGeometry relative="1" as="geometry"/>
                </mxCell>
                <mxCell id="WQnKJFmEZzI5TRq4T7l6-8" style="edgeStyle=none;html=1;exitX=0.75;exitY=1;exitDx=0;exitDy=0;" edge="1" parent="1" source="2" target="WQnKJFmEZzI5TRq4T7l6-7">
                    <mxGeometry relative="1" as="geometry"/>
                </mxCell>
                <mxCell id="WQnKJFmEZzI5TRq4T7l6-10" style="edgeStyle=none;html=1;exitX=1;exitY=1;exitDx=0;exitDy=0;entryX=0.25;entryY=0;entryDx=0;entryDy=0;" edge="1" parent="1" source="2" target="WQnKJFmEZzI5TRq4T7l6-9">
                    <mxGeometry relative="1" as="geometry"/>
                </mxCell>
                <mxCell id="2" value="App" style="rounded=0;whiteSpace=wrap;html=1;" parent="1" vertex="1">
                    <mxGeometry x="360" y="-10" width="120" height="60" as="geometry"/>
                </mxCell>
                <mxCell id="4" value="Home(react)&lt;br&gt;POST" style="rounded=0;whiteSpace=wrap;html=1;" parent="1" vertex="1">
                    <mxGeometry x="50" y="200" width="110" height="60" as="geometry"/>
                </mxCell>
                <mxCell id="WQnKJFmEZzI5TRq4T7l6-14" style="edgeStyle=none;html=1;exitX=0.5;exitY=1;exitDx=0;exitDy=0;entryX=0.5;entryY=0;entryDx=0;entryDy=0;" edge="1" parent="1" source="WQnKJFmEZzI5TRq4T7l6-5" target="WQnKJFmEZzI5TRq4T7l6-11">
                    <mxGeometry relative="1" as="geometry"/>
                </mxCell>
                <mxCell id="WQnKJFmEZzI5TRq4T7l6-5" value="MyBrews(react)&lt;br&gt;GET" style="rounded=0;whiteSpace=wrap;html=1;" vertex="1" parent="1">
                    <mxGeometry x="280" y="200" width="120" height="60" as="geometry"/>
                </mxCell>
                <mxCell id="WQnKJFmEZzI5TRq4T7l6-17" style="edgeStyle=none;html=1;exitX=0.5;exitY=1;exitDx=0;exitDy=0;entryX=0.5;entryY=0;entryDx=0;entryDy=0;" edge="1" parent="1" source="WQnKJFmEZzI5TRq4T7l6-7" target="WQnKJFmEZzI5TRq4T7l6-16">
                    <mxGeometry relative="1" as="geometry"/>
                </mxCell>
                <mxCell id="WQnKJFmEZzI5TRq4T7l6-7" value="Favorites(react)&lt;br&gt;GET" style="rounded=0;whiteSpace=wrap;html=1;" vertex="1" parent="1">
                    <mxGeometry x="460" y="200" width="120" height="60" as="geometry"/>
                </mxCell>
                <mxCell id="WQnKJFmEZzI5TRq4T7l6-15" style="edgeStyle=none;html=1;exitX=0.5;exitY=1;exitDx=0;exitDy=0;entryX=0.5;entryY=0;entryDx=0;entryDy=0;" edge="1" parent="1" source="WQnKJFmEZzI5TRq4T7l6-9" target="WQnKJFmEZzI5TRq4T7l6-12">
                    <mxGeometry relative="1" as="geometry"/>
                </mxCell>
                <mxCell id="WQnKJFmEZzI5TRq4T7l6-9" value="GlovalBrews(react)&lt;br&gt;GET" style="rounded=0;whiteSpace=wrap;html=1;" vertex="1" parent="1">
                    <mxGeometry x="660" y="200" width="120" height="60" as="geometry"/>
                </mxCell>
                <mxCell id="WQnKJFmEZzI5TRq4T7l6-11" value="Modal&lt;br&gt;Edit/Delete: PATCH/DELETE" style="rounded=0;whiteSpace=wrap;html=1;" vertex="1" parent="1">
                    <mxGeometry x="280" y="320" width="120" height="60" as="geometry"/>
                </mxCell>
                <mxCell id="WQnKJFmEZzI5TRq4T7l6-12" value="Fav card: PATCH" style="rounded=0;whiteSpace=wrap;html=1;" vertex="1" parent="1">
                    <mxGeometry x="660" y="320" width="120" height="60" as="geometry"/>
                </mxCell>
                <mxCell id="WQnKJFmEZzI5TRq4T7l6-16" value="Unfavorite card: PATCH" style="rounded=0;whiteSpace=wrap;html=1;" vertex="1" parent="1">
                    <mxGeometry x="460" y="320" width="120" height="60" as="geometry"/>
                </mxCell>
            </root>
        </mxGraphModel>
    </diagram>
</mxfile>